<svg width="117" height="117" viewBox="0 0 117 117" fill="none" xmlns="http://www.w3.org/2000/svg">
<g clip-path="url(#clip0_494_84)">
<ellipse cx="57.6643" cy="58.5" rx="49.3071" ry="46.8" fill="black"/>
<path d="M58.5 0C26.1915 0 0 26.192 0 58.5C0 90.8103 26.192 117 58.5 117C90.8107 117 117 90.8103 117 58.5C117 26.1943 90.8107 0.00319922 58.4991 0.00319922L58.4995 0.000457031L58.5 0ZM85.3273 84.3744C84.2793 86.0928 82.0298 86.6376 80.3114 85.5828C66.5762 77.193 49.2858 75.2927 28.9228 79.9453C27.9798 80.1599 26.9902 79.9912 26.1716 79.4764C25.353 78.9616 24.7723 78.1427 24.5572 77.1999C24.45 76.7331 24.436 76.2498 24.5158 75.7776C24.5957 75.3054 24.7679 74.8536 25.0226 74.4481C25.2774 74.0425 25.6096 73.6912 26.0002 73.4142C26.3909 73.1372 26.8324 72.94 27.2994 72.8339C49.5842 67.7425 68.6986 69.9345 84.1189 79.3585C85.8373 80.4133 86.3821 82.6559 85.3273 84.3744ZM92.4876 68.4455C91.1668 70.5912 88.3588 71.269 86.2144 69.9486C70.4898 60.2833 46.5198 57.484 27.921 63.1297C25.5087 63.8582 22.9613 62.499 22.2291 60.0909C21.5024 57.6787 22.8625 55.1358 25.2706 54.4027C46.5157 47.9558 72.9276 51.0787 90.9858 62.1754C93.1302 63.4963 93.8079 66.3038 92.4876 68.4455ZM93.1023 51.8584C74.2479 40.6593 43.141 39.6292 25.1399 45.0934C22.2492 45.97 19.1921 44.338 18.3164 41.4473C17.4403 38.5552 19.0705 35.5004 21.9636 34.6215C42.6273 28.3483 76.9796 29.5608 98.6863 42.4472C101.292 43.9902 102.144 47.3484 100.6 49.9448C99.0638 52.5453 95.6964 53.4023 93.105 51.8584H93.1023Z" fill="#1ED760"/>
</g>
<defs>
<clipPath id="clip0_494_84">
<rect width="117" height="117" fill="white"/>
</clipPath>
</defs>
</svg>
