<svg width="59" height="74" viewBox="0 0 59 74" fill="none" xmlns="http://www.w3.org/2000/svg">
<path d="M19.7441 0.198242L16.7705 1.88828C16.7705 7.20576 16.8877 16.4744 18.8066 23.6297C27.3467 25.9871 31.6533 25.9871 40.1934 23.6297C42.1416 16.491 42.2295 9.2627 42.2441 1.88828L39.2559 0.198242C38.6113 1.15117 37.542 2.69512 36.0625 4.60928C35.0078 5.96396 33.8945 7.32529 32.8252 8.39443C32.2979 8.929 31.7852 9.39053 31.2725 9.75078C30.7451 10.116 30.2324 10.4314 29.5 10.4314C28.7676 10.4314 28.2549 10.116 27.7275 9.75078C27.2148 9.39053 26.7022 8.929 26.1748 8.39443C25.1055 7.32529 23.9922 5.96396 22.9375 4.60928C21.458 2.69512 20.3887 1.15117 19.7441 0.198242ZM18.4844 26.6014L0.393555 67.6238C0.43457 67.8064 0.510742 68.0057 0.709961 68.2547C1.00293 68.6365 1.52734 69.1014 2.26416 69.533C3.74072 70.4295 6.03174 71.243 8.81641 71.8904C14.3828 73.1854 21.9561 73.8494 29.5 73.8494C37.0439 73.8494 44.6172 73.1854 50.1836 71.8904C52.9668 71.243 55.2666 70.4295 56.7315 69.533C57.4785 69.1014 57.9912 68.6365 58.2842 68.2547C58.4893 68.0057 58.5625 67.8064 58.6065 67.6238L40.5156 26.6014C32.0195 28.909 26.9805 28.909 18.4844 26.6014Z" fill="#D04AFF"/>
</svg>
