<svg width="75" height="85" viewBox="0 0 75 85" fill="none" xmlns="http://www.w3.org/2000/svg">
<path d="M42.2189 0C24.564 0 10.3276 13.9306 9.43787 31.45L0.446489 43.3972C-0.677433 44.8611 0.446489 47.2222 2.41335 47.2222H9.43787V61.3889C9.43787 66.6306 13.6057 70.8333 18.8039 70.8333H23.4869V85H56.268V62.8528C67.3667 57.5639 75 46.2778 75 33.0556C75 14.8278 60.389 0 42.2189 0ZM46.9019 51.9444H37.5359V42.5H46.9019V51.9444ZM55.0972 27.4361C53.7391 29.325 52.0064 30.6944 49.8991 31.8278C48.7283 32.5833 47.9322 33.3861 47.5107 34.2833C47.0893 35.1333 46.9019 36.3139 46.9019 37.7778H37.5359C37.5359 35.4167 38.0511 33.4333 38.9877 32.2056C39.8774 30.9306 41.5165 29.5139 43.9048 27.9083C45.1224 27.1528 46.1058 26.2083 46.7615 25.1222C47.5107 24.0361 47.8385 22.7611 47.8385 21.25C47.8385 19.8333 47.4639 18.6056 46.621 17.7083C45.778 16.8583 44.5604 16.3861 43.1087 16.3861C41.9824 16.3615 40.8851 16.7471 40.0179 17.4722C39.175 18.2278 38.7535 19.3139 38.7067 20.7306H29.6685L29.6216 20.5889C29.5748 16.8583 30.7924 14.1667 33.2276 12.2306C35.7564 10.3889 39.0345 9.44444 43.1087 9.44444C47.4639 9.44444 50.8825 10.5306 53.3645 12.6556C55.8933 14.7806 57.1577 17.6611 57.1577 21.25C57.1577 23.6111 56.4553 25.5472 55.0972 27.4361Z" fill="#FFE600"/>
</svg>
