<svg width="78" height="78" viewBox="0 0 78 78" fill="none" xmlns="http://www.w3.org/2000/svg">
<path d="M0 39C0 28.6566 4.10892 18.7368 11.4228 11.4228C18.7368 4.10892 28.6566 0 39 0C49.3434 0 59.2632 4.10892 66.5772 11.4228C73.8911 18.7368 78 28.6566 78 39C78 49.3434 73.8911 59.2632 66.5772 66.5772C59.2632 73.8911 49.3434 78 39 78C28.6566 78 18.7368 73.8911 11.4228 66.5772C4.10892 59.2632 0 49.3434 0 39ZM39 7.3125C30.596 7.3125 22.5361 10.651 16.5936 16.5936C10.651 22.5361 7.3125 30.596 7.3125 39C7.3125 47.404 10.651 55.4639 16.5936 61.4064C22.5361 67.349 30.596 70.6875 39 70.6875C47.404 70.6875 55.4639 67.349 61.4064 61.4064C67.349 55.4639 70.6875 47.404 70.6875 39C70.6875 30.596 67.349 22.5361 61.4064 16.5936C55.4639 10.651 47.404 7.3125 39 7.3125ZM33.735 29.6644C33.3019 30.5319 32.5467 31.1919 31.627 31.4991C30.7073 31.8063 29.7032 31.7355 28.8356 31.3024C27.9681 30.8692 27.3081 30.1092 27.0009 29.1895C26.6937 28.2698 26.7645 27.2657 27.1976 26.3981C28.0215 24.7455 29.3231 22.9808 31.3365 21.6353C33.3694 20.28 35.9239 19.5 39 19.5C41.865 19.4804 44.6612 20.3772 46.9804 22.0594C49.4325 23.8973 51.1875 26.7638 51.1875 30.4688C51.1875 32.6528 50.6269 34.515 49.5836 36.075C48.5842 37.5716 47.2924 38.5759 46.2101 39.3022C45.6787 39.6533 45.1376 39.975 44.6842 40.2529L44.655 40.2724C44.2262 40.522 43.8036 40.7821 43.3875 41.0524C42.8654 41.3589 42.4083 41.7647 42.042 42.2467C41.4992 43.0419 40.6647 43.5908 39.7196 43.7744C38.7746 43.9581 37.7952 43.7615 36.9942 43.2275C36.1931 42.6935 35.635 41.865 35.441 40.9221C35.2471 39.9791 35.4328 38.9976 35.958 38.1908C36.855 36.9038 38.0055 35.8069 39.3315 34.9684C39.8336 34.6418 40.3406 34.3249 40.8574 34.0177L40.8915 33.9982C41.379 33.7009 41.7788 33.462 42.1493 33.2134C42.6719 32.9056 43.1303 32.5001 43.4996 32.019C43.68 31.7557 43.875 31.3316 43.875 30.4688C43.8935 29.9693 43.7863 29.4732 43.5631 29.026C43.3399 28.5788 43.008 28.1949 42.5977 27.9094C41.5413 27.1795 40.284 26.7962 39 26.8125C37.2011 26.8125 36.0994 27.2512 35.3925 27.7241C34.6791 28.214 34.1074 28.8832 33.735 29.6644ZM43.875 53.625C43.875 54.9179 43.3614 56.1579 42.4471 57.0721C41.5329 57.9864 40.2929 58.5 39 58.5C37.7071 58.5 36.4671 57.9864 35.5529 57.0721C34.6386 56.1579 34.125 54.9179 34.125 53.625C34.125 52.3321 34.6386 51.0921 35.5529 50.1779C36.4671 49.2636 37.7071 48.75 39 48.75C40.2929 48.75 41.5329 49.2636 42.4471 50.1779C43.3614 51.0921 43.875 52.3321 43.875 53.625Z" fill="#41EC3E"/>
</svg>
