<svg width="70" height="70" viewBox="0 0 70 70" fill="none" xmlns="http://www.w3.org/2000/svg">
<path d="M35 0C15.6702 0 0 15.6704 0 35C0 54.3309 15.6704 70 35 70C54.3312 70 70 54.3309 70 35C70 15.6718 54.3312 0.00191406 34.9995 0.00191406L34.9997 0.000273438L35 0ZM51.0505 50.4804C50.4235 51.5085 49.0777 51.8345 48.0495 51.2034C39.8319 46.1839 29.4872 45.0469 17.3042 47.8305C16.7401 47.9589 16.148 47.858 15.6582 47.55C15.1684 47.242 14.821 46.7521 14.6923 46.188C14.6282 45.9087 14.6198 45.6195 14.6676 45.337C14.7154 45.0545 14.8184 44.7842 14.9708 44.5416C15.1232 44.2989 15.322 44.0887 15.5557 43.923C15.7894 43.7573 16.0536 43.6393 16.333 43.5758C29.6658 40.5297 41.1018 41.8411 50.3275 47.4794C51.3557 48.1105 51.6816 49.4523 51.0505 50.4804ZM55.3345 40.9503C54.5442 42.2341 52.8642 42.6396 51.5812 41.8496C42.1734 36.067 27.8324 34.3922 16.7048 37.7699C15.2616 38.2058 13.7375 37.3926 13.2995 35.9518C12.8647 34.5086 13.6784 32.9872 15.1192 32.5486C27.8299 28.6915 43.6319 30.5599 54.4359 37.199C55.7189 37.9892 56.1244 39.6689 55.3345 40.9503ZM55.7022 31.0264C44.4218 24.3261 25.8109 23.7098 15.041 26.979C13.3115 27.5034 11.4825 26.527 10.9586 24.7975C10.4344 23.0672 11.4097 21.2395 13.1406 20.7137C25.5035 16.9605 46.0562 17.6859 59.0431 25.3958C60.6022 26.3189 61.1119 28.3281 60.1882 29.8815C59.2689 31.4374 57.2543 31.9501 55.7039 31.0264H55.7022Z" fill="#1ED760"/>
</svg>
